<svg xmlns:svg="http://www.w3.org/2000/svg" xmlns="http://www.w3.org/2000/svg" preserveAspectRatio="xMidYMid meet" viewBox="0 0 509.53674 128.3185" version="1.1" class="ng-binding"><defs id="defs6"><linearGradient id="linearGradient3779" y2="128.62" gradientUnits="userSpaceOnUse" x2="64.626" y1=".50001" x1="64.464"><stop id="stop3775" stop-color="#04324a" offset="0"></stop><stop id="stop3777" stop-color="#265b78" offset="1"></stop></linearGradient></defs><path id="path14" fill="url(#linearGradient3779)" d="m105.32 0.01681h-82.352c-10.525 0-19.43 7.182-22.118 16.88h69.369c12.006 0 25.209 5.4961 29.741 12.746 4.9123 7.8598-2.0861 14.759-15.989 14.759h-50.425c-4.6342 0-7.9021 2.4092-7.2684 5.4511 0.65281 3.1337 5.1784 5.7542 10.07 5.7542h53.227c14.675 0 31.781 8.2686 38.71 19.355v-51.979c0-12.631-10.335-22.966-22.966-22.966zm-58.328 98.171c-5.8697 0-9.8372 3.8786-8.8097 8.8099l4.4379 21.303h62.698c12.631 0 22.966-10.335 22.966-22.966v-13.223c-3.3143 3.73-9.2811 6.0764-17.42 6.0764h-63.872zm-3.9918-15.968h59.88c5.503 0 8.1863-3.3112 6.0487-7.2583-2.0675-3.8166-7.9144-6.8312-13.093-6.8312h-56.358c-15.538 0-29.252-8.5834-30.464-18.278-1.1082-8.865 8.8027-15.536 22.01-15.536h47.904c4.4022 0 6.833-2.1251 5.4524-4.6737-1.3438-2.4806-5.8222-4.4507-10.015-4.4507h-74.366v80.144c0 11.197 8.1268 20.573 18.77 22.562l-2.6123-20.899c-1.7827-14.262 10.334-24.778 26.843-24.778"></path><g id="flowRoot3012" transform="translate(135.78 -401.16)" fill="#04324a"><path id="path5659" d="m31.631 455.81c10.125 0 19.425-2.625 19.425-14.85 0-4.275-2.85-10.575-9-12.15 4.95-2.25 7.35-6.075 7.35-10.575 0-10.8-7.875-14.925-17.775-14.925h-28.35v7.125h6.15v38.1h-6.3v7.275h28.5m-14.4-45.375h14.4c6 0 10.05 2.025 10.05 7.875 0 3.75-3.675 6.9-9.825 6.9h-14.625v-14.775m0 21.9h14.625c4.875 0 11.175 2.55 11.175 8.325 0 6.75-6.6 7.95-11.4 7.95h-14.4v-16.275M88.649 445.69c-2.325 2.625-7.05 4.05-10.875 4.05-6.9 0-11.925-4.05-12.525-9.6h30.45c1.425-14.925-6.75-22.35-18.525-22.35-11.4 0-19.5 8.175-19.5 19.275 0 11.7 7.875 19.575 19.875 19.575 5.7 0 12.15-2.1 15.975-6.375l-4.875-4.575m-23.4-11.7c1.2-6.075 6.45-9.525 12.15-9.525 6.3 0 10.725 3.375 11.175 9.525h-23.325M131.02 445.69c-2.325 2.7-6.075 3.75-9.3 3.75-6.15 0-12.75-4.275-12.75-12.15 0-6.975 4.725-12.525 12.375-12.675 1.575 0 4.425 0.15 6.15 0.825v5.925h6.6l0.45-10.125c-4.125-2.025-8.625-3.225-13.35-3.225-10.05 0-19.65 5.325-19.65 19.275 0 12.45 9.75 19.2 20.025 19.2 5.25 0 10.275-1.65 14.25-5.775l-4.8-5.025M140.73 437.36c0 10.95 7.875 19.2 19.35 19.2 11.55 0 19.425-8.25 19.425-19.2 0-11.325-7.725-19.5-19.425-19.5-11.325 0-19.35 8.25-19.35 19.5m31.425 0c-0.075 6.9-4.8 12.225-12.075 12.225-7.2 0-11.925-5.325-11.925-12.225 0-7.5 4.875-12.75 12-12.75 6.9 0 12 5.25 12 12.75M204.68 455.81v-6.675h-5.7v-13.95c0-5.475 3.45-10.125 9.075-10.05 6.225 0 9 4.35 9 10.05v13.95h-5.7v6.675h18.675v-6.675h-5.625v-13.95c0-5.4 3.6-10.05 9.225-10.05 6.3 0 8.55 4.2 8.55 9.9v14.1h-5.475v6.675h18.675v-6.675h-5.925v-14.1c0-10.425-4.8-16.95-15.675-16.95-4.95 0-9.825 2.175-12.675 7.575-1.875-5.475-5.925-7.575-11.85-7.575-3.825 0-8.1 1.65-10.2 5.55l-0.6-4.875h-12.75v6.525h5.775v23.85h-6v6.675h19.2M268.91 412.54c2.4 0 4.65-1.65 4.65-4.575 0-3.075-2.25-4.725-4.65-4.725s-4.65 1.575-4.65 4.575c0 3.075 2.25 4.725 4.65 4.725m-9.45 6.075v6.525h5.625v24h-5.775v6.675h18.675v-6.675h-5.475v-30.525h-13.05M296.76 436.16c0-6.975 4.5-11.1 10.725-11.1 7.275 0 9.6 3.225 9.6 10.725v13.35h-5.025v6.675h18.45v-6.675h-6v-13.425c0-11.175-5.25-17.625-16.35-17.625-4.8 0-7.95 1.425-11.55 5.55l-0.525-5.025h-12.525v6.6h5.85v23.925h-6v6.675h19.2v-6.675h-5.85v-12.975M341.66 436.31c0-7.8 6.3-11.7 12.45-11.7 6.675 0 12.45 4.275 12.45 11.85 0 6.75-5.25 11.85-12.3 11.85-6.825 0-12.375-4.275-12.6-12m-7.05 25.2c-0.225 10.125 7.5 16.35 19.35 16.35 10.05 0 19.65-5.1 19.65-14.925 0-4.575-2.1-9.6-9.525-12 6.675-2.55 9.675-8.175 9.675-14.625 0-4.725-1.5-8.025-4.575-11.55l4.35-5.1-5.25-4.2-4.05 4.875c-2.625-1.8-6.975-2.55-10.125-2.55-9.675 0-19.8 6.225-19.8 18.525 0 11.55 7.95 18.45 19.8 18.45 6.9 0 11.925 3.3 11.925 8.325 0 6.075-6.15 8.025-12.075 8.025-6.225-0.075-12.075-2.7-12.225-9.6h-7.125"></path></g><g id="flowRoot3012-5" transform="translate(82.457 -333.69)" fill="#265b78"><path id="path5676" d="m122.98 455.81v-7.125h-6.225v-38.1h6.3v-7.275h-15.6l-17.475 25.125-17.7-25.125h-15.75v7.275h6.375v38.1h-6.45v7.125h20.25v-7.125h-5.925v-34.05l18.15 24.6h1.725l18.3-24.375v33.825h-6v7.125h20.025M147.78 425.21c8.7 0 13.2 5.85 12.9 12.9-0.3 6.375-4.95 12-12.9 12-6.9 0-12.225-5.025-12.225-12.525 0-7.425 5.4-12.375 12.225-12.375m19.95 24v-23.775h5.55v-6.75h-12.75l-0.075 5.7c-2.775-4.2-7.65-6.375-12.9-6.375-10.8 0-19.35 7.125-19.35 19.275 0 12.3 8.25 19.575 19.2 19.575 4.725-0.075 9.9-1.425 12.825-6.075 0-1.05 0.9 6 0.9 5.025h12.375v-6.6h-5.775M208.95 445.69c-2.325 2.7-6.075 3.75-9.3 3.75-6.15 0-12.75-4.275-12.75-12.15 0-6.975 4.725-12.525 12.375-12.675 1.575 0 4.425 0.15 6.15 0.825v5.925h6.6l0.45-10.125c-4.125-2.025-8.625-3.225-13.35-3.225-10.05 0-19.65 5.325-19.65 19.275 0 12.45 9.75 19.2 20.025 19.2 5.25 0 10.275-1.65 14.25-5.775l-4.8-5.025M223.98 449.36h-6v6.45h19.2v-6.45h-5.775v-12.75c0-6.3 4.275-11.25 10.875-11.325 6.075-0.075 9.75 3.975 9.75 10.8v13.275h-4.5v6.45h17.625v-6.45h-5.85v-13.425c0-10.275-5.25-17.625-15.75-17.625-4.425 0-9.075 1.65-12.225 5.775v-20.85h-13.05v6.45h5.7v39.675M278.28 412.54c2.4 0 4.65-1.65 4.65-4.575 0-3.075-2.25-4.725-4.65-4.725s-4.65 1.575-4.65 4.575c0 3.075 2.25 4.725 4.65 4.725m-9.45 6.075v6.525h5.625v24h-5.775v6.675h18.675v-6.675h-5.475v-30.525h-13.05M306.13 436.16c0-6.975 4.5-11.1 10.725-11.1 7.275 0 9.6 3.225 9.6 10.725v13.35h-5.025v6.675h18.45v-6.675h-6v-13.425c0-11.175-5.25-17.625-16.35-17.625-4.8 0-7.95 1.425-11.55 5.55l-0.525-5.025h-12.525v6.6h5.85v23.925h-6v6.675h19.2v-6.675h-5.85v-12.975M353.14 412.54c2.4 0 4.65-1.65 4.65-4.575 0-3.075-2.25-4.725-4.65-4.725s-4.65 1.575-4.65 4.575c0 3.075 2.25 4.725 4.65 4.725m-9.45 6.075v6.525h5.625v24h-5.775v6.675h18.675v-6.675h-5.475v-30.525h-13.05M397.19 445.69c-2.325 2.7-6.075 3.75-9.3 3.75-6.15 0-12.75-4.275-12.75-12.15 0-6.975 4.725-12.525 12.375-12.675 1.575 0 4.425 0.15 6.15 0.825v5.925h6.6l0.45-10.125c-4.125-2.025-8.625-3.225-13.35-3.225-10.05 0-19.65 5.325-19.65 19.275 0 12.45 9.75 19.2 20.025 19.2 5.25 0 10.275-1.65 14.25-5.775l-4.8-5.025"></path></g></svg>